<?xml version="1.0" encoding="UTF-8"?>
<svg width="3300px" height="2200px" viewBox="0 0 3300 2200" version="1.1" xmlns="http://www.w3.org/2000/svg" xmlns:xlink="http://www.w3.org/1999/xlink">
    <!-- Generator: Sketch 64 (93537) - https://sketch.com -->
    <title>pencil.and.ellipsis.rectangle</title>
    <desc>Created with Sketch.</desc>
    <g id="Page-1" stroke="none" stroke-width="1" fill="none" fill-rule="evenodd">
        <g id="pencil.and.ellipsis.rectangle">
            <g id="Notes">
                <rect id="artboard" fill="#FFFFFF" fill-rule="nonzero" x="0" y="0" width="3300" height="2200"></rect>
                <line x1="263" y1="292" x2="3036" y2="292" id="Path" stroke="#000000" stroke-width="0.5"></line>
                <text id="Weight/Scale-Variations" fill="#000000" font-family="Helvetica-Bold, Helvetica" font-size="13" font-weight="bold">
                    <tspan x="263" y="322">Weight/Scale Variations</tspan>
                </text>
                <text id="Ultralight" fill="#000000" font-family="Helvetica" font-size="13" font-weight="normal">
                    <tspan x="533.711" y="322">Ultralight</tspan>
                </text>
                <text id="Thin" fill="#000000" font-family="Helvetica" font-size="13" font-weight="normal">
                    <tspan x="843.422" y="322">Thin</tspan>
                </text>
                <text id="Light" fill="#000000" font-family="Helvetica" font-size="13" font-weight="normal">
                    <tspan x="1138.63" y="322">Light</tspan>
                </text>
                <text id="Regular" fill="#000000" font-family="Helvetica" font-size="13" font-weight="normal">
                    <tspan x="1426.84" y="322">Regular</tspan>
                </text>
                <text id="Medium" fill="#000000" font-family="Helvetica" font-size="13" font-weight="normal">
                    <tspan x="1723.06" y="322">Medium</tspan>
                </text>
                <text id="Semibold" fill="#000000" font-family="Helvetica" font-size="13" font-weight="normal">
                    <tspan x="2015.77" y="322">Semibold</tspan>
                </text>
                <text id="Bold" fill="#000000" font-family="Helvetica" font-size="13" font-weight="normal">
                    <tspan x="2326.48" y="322">Bold</tspan>
                </text>
                <text id="Heavy" fill="#000000" font-family="Helvetica" font-size="13" font-weight="normal">
                    <tspan x="2618.19" y="322">Heavy</tspan>
                </text>
                <text id="Black" fill="#000000" font-family="Helvetica" font-size="13" font-weight="normal">
                    <tspan x="2917.4" y="322">Black</tspan>
                </text>
                <line x1="263" y1="1903" x2="3036" y2="1903" id="Path" stroke="#000000" stroke-width="0.5"></line>
                <g id="Group" transform="translate(264.000000, 1918.000000)" fill="#000000" fill-rule="nonzero">
                    <path d="M8.24805,15.830078 C12.5547,15.830078 16.1387,12.25586 16.1387,7.94922 C16.1387,3.6426 12.5449,0.0684 8.23828,0.0684 C3.94141,0.0684 0.36719,3.6426 0.36719,7.94922 C0.36719,12.25586 3.95117,15.830078 8.24805,15.830078 Z M8.24805,14.345703 C4.70312,14.345703 1.87109,11.50391 1.87109,7.94922 C1.87109,4.3945 4.69336,1.5527 8.23828,1.5527 C11.793,1.5527 14.6348,4.3945 14.6445252,7.94922 C14.6543,11.50391 11.8027,14.345703 8.24805,14.345703 Z M8.22852,11.57227 C8.69727,11.57227 8.9707,11.25977 8.9707,10.74219 L8.9707,8.68164 L11.1973,8.68164 C11.6953,8.68164 12.0371,8.42773 12.0371,7.95898 C12.0371,7.48047 11.7148,7.2168 11.1973,7.2168 L8.9707,7.2168 L8.9707,4.9902 C8.9707,4.4727 8.69727,4.1504 8.22852,4.1504 C7.75977,4.1504 7.50586,4.4922 7.50586,4.9902 L7.50586,7.2168 L5.29883,7.2168 C4.78125,7.2168 4.44922,7.48047 4.44922,7.95898 C4.44922,8.42773 4.80078,8.68164 5.29883,8.68164 L7.50586,8.68164 L7.50586,10.74219 C7.50586,11.24023 7.75977,11.57227 8.22852,11.57227 Z" id="Shape"></path>
                </g>
                <g id="Group" transform="translate(282.506000, 1915.000000)" fill="#000000" fill-rule="nonzero">
                    <path d="M10.709,20.91016 C16.1582,20.91016 20.6699,16.39844 20.6699,10.94922 C20.6699,5.5098 16.1484,0.9883 10.6992,0.9883 C5.25977,0.9883 0.74805,5.5098 0.74805,10.94922 C0.74805,16.39844 5.26953,20.91016 10.709,20.91016 Z M10.709,19.25 C6.09961,19.25 2.41797,15.55859 2.41797,10.94922 C2.41797,6.3496 6.08984,2.6484 10.6992,2.6484 C15.3086,2.6484 19,6.3496 19.009819,10.94922 C19.0195,15.55859 15.3184,19.25 10.709,19.25 Z M10.6895,15.58789 C11.207,15.58789 11.5195,15.22656 11.5195,14.66016 L11.5195,11.76953 L14.5762,11.76953 C15.123,11.76953 15.5039,11.48633 15.5039,10.96875 C15.5039,10.44141 15.1426,10.13867 14.5762,10.13867 L11.5195,10.13867 L11.5195,7.0723 C11.5195,6.4961 11.207,6.1445 10.6895,6.1445 C10.1719,6.1445 9.8789,6.5156 9.8789,7.0723 L9.8789,10.13867 L6.83203,10.13867 C6.26562,10.13867 5.89453,10.44141 5.89453,10.96875 C5.89453,11.48633 6.28516,11.76953 6.83203,11.76953 L9.8789,11.76953 L9.8789,14.66016 C9.8789,15.20703 10.1719,15.58789 10.6895,15.58789 Z" id="Shape"></path>
                </g>
                <g id="Group" transform="translate(306.924000, 1913.000000)" fill="#000000" fill-rule="nonzero">
                    <path d="M12.9707,25.67383 C19.9336,25.67383 25.6953,19.921875 25.6953,12.95898 C25.6953,5.9961 19.9238,0.2441 12.9609,0.2441 C6.00781,0.2441 0.25586,5.9961 0.25586,12.95898 C0.25586,19.921875 6.01758,25.67383 12.9707,25.67383 Z M12.9707,23.85742 C6.93555,23.85742 2.08203,18.99414 2.08203,12.95898 C2.08203,6.9238 6.92578,2.0605 12.9609,2.0605 C19.0059,2.0605 23.8594,6.9238 23.8691148,12.95898 C23.8789,18.99414 19.0156,23.85742 12.9707,23.85742 Z M12.9512,18.93555 C13.5176,18.93555 13.8691,18.54492 13.8691,17.93945 L13.8691,13.86719 L18.1074,13.86719 C18.6934,13.86719 19.1133,13.53516 19.1133,12.97852 C19.1133,12.40234 18.7227,12.06055 18.1074,12.06055 L13.8691,12.06055 L13.8691,7.8125 C13.8691,7.1973 13.5176,6.8066 12.9512,6.8066 C12.3848,6.8066 12.0625,7.2168 12.0625,7.8125 L12.0625,12.06055 L7.83398,12.06055 C7.21875,12.06055 6.80859,12.40234 6.80859,12.97852 C6.80859,13.53516 7.23828,13.86719 7.83398,13.86719 L12.0625,13.86719 L12.0625,17.93945 C12.0625,18.52539 12.3848,18.93555 12.9512,18.93555 Z" id="Shape"></path>
                </g>
                <text id="Design-Variations" fill="#000000" font-family="Helvetica-Bold, Helvetica" font-size="13" font-weight="bold">
                    <tspan x="263" y="1953">Design Variations</tspan>
                </text>
                <text id="Symbols-are-supported-in-up-to-nine-weights-and-three-scales." fill="#000000" font-family="Helvetica" font-size="13" font-weight="normal">
                    <tspan x="263" y="1971">Symbols are supported in up to nine weights and three scales.</tspan>
                </text>
                <text id="For-optimal-layout-with-text-and-other-symbols,-vertically-align" fill="#000000" font-family="Helvetica" font-size="13" font-weight="normal">
                    <tspan x="263" y="1989">For optimal layout with text and other symbols, vertically align</tspan>
                </text>
                <text id="symbols-with-the-adjacent-text." fill="#000000" font-family="Helvetica" font-size="13" font-weight="normal">
                    <tspan x="263" y="2007">symbols with the adjacent text.</tspan>
                </text>
                <rect id="Rectangle" fill="#00AEEF" fill-rule="nonzero" opacity="0.4" x="776" y="1919" width="3" height="14"></rect>
                <g id="Group" transform="translate(779.000000, 1918.000000)" fill="#000000" fill-rule="nonzero">
                    <path d="M10.5273,15 L12.373,15 L7.17773,0.9082 L5.43945,0.9082 L0.244141,15 L2.08984,15 L3.50586,10.9668 L9.11133,10.9668 L10.5273,15 Z M6.2793,3.0469 L6.33789,3.0469 L8.59375,9.47266 L4.02344,9.47266 L6.2793,3.0469 Z" id="Shape"></path>
                </g>
                <rect id="Rectangle" fill="#00AEEF" fill-rule="nonzero" opacity="0.4" x="791.617" y="1919" width="3" height="14"></rect>
                <text id="Margins" fill="#000000" font-family="Helvetica-Bold, Helvetica" font-size="13" font-weight="bold">
                    <tspan x="776" y="1953">Margins</tspan>
                </text>
                <text id="Leading-and-trailing-margins-on-the-left-and-right-side-of-each-symbol" fill="#000000" font-family="Helvetica" font-size="13" font-weight="normal">
                    <tspan x="776" y="1971">Leading and trailing margins on the left and right side of each symbol</tspan>
                </text>
                <text id="can-be-adjusted-by-modifying-the-width-of-the-blue-rectangles." fill="#000000" font-family="Helvetica" font-size="13" font-weight="normal">
                    <tspan x="776" y="1989">can be adjusted by modifying the width of the blue rectangles.</tspan>
                </text>
                <text id="Modifications-are-automatically-applied-proportionally-to-all" fill="#000000" font-family="Helvetica" font-size="13" font-weight="normal">
                    <tspan x="776" y="2007">Modifications are automatically applied proportionally to all</tspan>
                </text>
                <text id="scales-and-weights." fill="#000000" font-family="Helvetica" font-size="13" font-weight="normal">
                    <tspan x="776" y="2025">scales and weights.</tspan>
                </text>
                <g id="Group" transform="translate(1291.000000, 1915.000000)" fill="#000000" fill-rule="nonzero">
                    <path d="M0.83203,21.11523 L2.375,22.6582 C3.22461,23.48828 4.19141,23.41992 5.06055,22.46289 L15.2754,11.33984 C15.7051,11.63281 16.0957,11.62305 16.5645,11.52539 L17.6094,11.31055 L18.3027,12.00391 L18.2539,12.52148 C18.1855,13.04883 18.3516,13.46875 18.8496,13.9668 L19.6602,14.77734 C20.168,15.28516 20.8223,15.31445 21.3008,14.83594 L24.5527,11.58398 C25.0312,11.10547 25.0117,10.45117 24.5039,9.94336 L23.6836,9.12305 C23.1855,8.625 22.7754,8.44922 22.2383,8.52734 L21.7109,8.58594 L21.0566,7.9219 L21.3398,6.7793 C21.4863,6.2129 21.3398,5.7441 20.7148,5.1387 L18.3027,2.7461 C14.7578,-0.7793 10.2266,-0.6719 7.11133,2.4629 C6.69141,2.8926 6.64258,3.4785 6.91602,3.9082 C7.15039,4.2793 7.62891,4.5039 8.2734,4.3379 C9.7871,3.957 11.3008,4.0742 12.7852,5.0801 L12.1602,6.6621 C11.9258,7.248 11.9453,7.7266 12.1797,8.16602 L1.01758,18.439453 C0.08008,19.30859 -0.02734,20.25586 0.83203,21.11523 Z M8.6738,2.8535 C11.3398,0.8613 14.6504,1.1738 17.0527,3.5859 L19.6797,6.1934 C19.9141,6.4277 19.9434,6.6133 19.8848,6.9062 L19.5039,8.46875 L21.0762,10.04102 L22.043,9.95312 C22.3262,9.92383 22.4141,9.94336 22.6387,10.16797 L23.2637,10.79297 L20.5098,13.53711 L19.8848,12.92188 C19.6602,12.69727 19.6406,12.59961 19.6699,12.31641 L19.7578,11.35938 L18.1953,9.79688 L16.5742,10.10938 C16.291,10.16797 16.1445,10.16797 15.9102,9.92383 L13.7324,7.7461 C13.5078,7.5117 13.4785,7.375 13.6055,7.0527 L14.5527,4.7773 C12.9512,3.2441 10.8418,2.3945 8.8008,3.0488 C8.7129,3.0781 8.6445,3.0586 8.6152,3.0195 C8.5859,2.9707 8.5859,2.9219 8.6738,2.8535 Z M2.10156,20.41211 C1.61328,19.91406 1.78906,19.61133 2.12109,19.30859 L13.0781,9.19141 L14.3086,10.42188 L4.15234,21.34961 C3.84961,21.68164 3.46875,21.7793 3.06836,21.37891 L2.10156,20.41211 Z" id="Shape"></path>
                </g>
                <text id="Exporting" fill="#000000" font-family="Helvetica-Bold, Helvetica" font-size="13" font-weight="bold">
                    <tspan x="1289" y="1953">Exporting</tspan>
                </text>
                <text id="Symbols-should-be-outlined-when-exporting-to-ensure-the" fill="#000000" font-family="Helvetica" font-size="13" font-weight="normal">
                    <tspan x="1289" y="1971">Symbols should be outlined when exporting to ensure the</tspan>
                </text>
                <text id="design-is-preserved-when-submitting-to-Xcode." fill="#000000" font-family="Helvetica" font-size="13" font-weight="normal">
                    <tspan x="1289" y="1989">design is preserved when submitting to Xcode.</tspan>
                </text>
                <text id="template-version" fill="#000000" font-family="Helvetica" font-size="13" font-weight="normal">
                    <tspan x="2952" y="1933">Template v.1.0</tspan>
                </text>
                <text id="Generated-from-pencil.and.ellipsis.rectangle" fill="#000000" font-family="Helvetica" font-size="13" font-weight="normal">
                    <tspan x="2782" y="1951">Generated from pencil.and.ellipsis.rectangle</tspan>
                </text>
                <text id="Typeset-at-100-points" fill="#000000" font-family="Helvetica" font-size="13" font-weight="normal">
                    <tspan x="2912" y="1969">Typeset at 100 points</tspan>
                </text>
                <text id="Small" fill="#000000" font-family="Helvetica" font-size="13" font-weight="normal">
                    <tspan x="263" y="726">Small</tspan>
                </text>
                <text id="Medium" fill="#000000" font-family="Helvetica" font-size="13" font-weight="normal">
                    <tspan x="263" y="1156">Medium</tspan>
                </text>
                <text id="Large" fill="#000000" font-family="Helvetica" font-size="13" font-weight="normal">
                    <tspan x="263" y="1586">Large</tspan>
                </text>
            </g>
            <g id="Guides" transform="translate(263.000000, 630.000000)">
                <g id="H-reference" transform="translate(76.000000, 0.000000)" fill="#27AAE1" fill-rule="nonzero">
                    <path d="M54.9316,71 L57.666,71 L30.5664,0.541 L28.0762,0.541 L0.976562,71 L3.66211,71 L12.9395,46.5371 L45.7031,46.5371 L54.9316,71 Z M29.1992,3.9102 L29.4434,3.9102 L44.8242,44.291 L13.8184,44.291 L29.1992,3.9102 Z" id="Shape"></path>
                </g>
                <line x1="0" y1="71" x2="2773" y2="71" id="Baseline-S" stroke="#27AAE1" stroke-width="0.577"></line>
                <line x1="0" y1="0.541" x2="2773" y2="0.541" id="Capline-S" stroke="#27AAE1" stroke-width="0.577"></line>
                <g id="H-reference" transform="translate(76.000000, 430.000000)" fill="#27AAE1" fill-rule="nonzero">
                    <path d="M54.9316,71 L57.666,71 L30.5664,0.541 L28.0762,0.541 L0.976562,71 L3.66211,71 L12.9395,46.5371 L45.7031,46.5371 L54.9316,71 Z M29.1992,3.9102 L29.4434,3.9102 L44.8242,44.291 L13.8184,44.291 L29.1992,3.9102 Z" id="Shape"></path>
                </g>
                <line x1="0" y1="501" x2="2773" y2="501" id="Baseline-M" stroke="#27AAE1" stroke-width="0.577"></line>
                <line x1="0" y1="430.54" x2="2773" y2="430.54" id="Capline-M" stroke="#27AAE1" stroke-width="0.577"></line>
                <g id="H-reference" transform="translate(76.000000, 860.000000)" fill="#27AAE1" fill-rule="nonzero">
                    <path d="M54.9316,71 L57.666,71 L30.5664,0.541 L28.0762,0.541 L0.976562,71 L3.66211,71 L12.9395,46.5371 L45.7031,46.5371 L54.9316,71 Z M29.1992,3.9102 L29.4434,3.9102 L44.8242,44.291 L13.8184,44.291 L29.1992,3.9102 Z" id="Shape"></path>
                </g>
                <line x1="0" y1="931" x2="2773" y2="931" id="Baseline-L" stroke="#27AAE1" stroke-width="0.577"></line>
                <line x1="0" y1="860.54" x2="2773" y2="860.54" id="Capline-L" stroke="#27AAE1" stroke-width="0.577"></line>
                <rect id="left-margin" fill="#00AEEF" fill-rule="nonzero" opacity="0.4" x="1102.18" y="405.79" width="12.4512" height="119.336"></rect>
                <rect id="right-margin" fill="#00AEEF" fill-rule="nonzero" opacity="0.4" x="1260.29" y="405.79" width="11.2243" height="119.336"></rect>
            </g>
            <g id="Symbols" transform="translate(476.000000, 631.000000)" fill-rule="nonzero">
                <g id="Black-L" transform="translate(2356.160000, 840.000000)" fill="#000000" stroke="#000000" stroke-width="7">
                    <path d="M141.900331,0 L197.130772,0 C200.312938,0 202.99524,2.24559746 203.6647,5.22714611 C203.815328,5.86511892 203.868885,6.52090597 203.82537,7.17068072 L203.82537,61.7931774 C203.82537,65.4673664 200.812801,68.4735208 197.130772,68.4735208 C193.448741,68.4735208 190.436172,65.4673664 190.436172,61.7931774 L190.436172,22.8590221 L125.61014,87.7362914 C125.554352,87.7919609 125.498564,87.8197957 125.442775,87.8476304 C125.386987,87.8754652 125.331199,87.9032999 125.27541,87.9589695 C125.163834,87.9589695 125.163834,88.0703085 125.163834,88.0703085 C125.052257,88.1816477 124.829104,88.2929867 124.60595,88.4043257 C124.159644,88.849682 123.601761,89.2950382 123.043877,89.5177163 C122.932301,89.5733858 122.848618,89.5733858 122.764936,89.5733858 C122.681253,89.5733858 122.597571,89.5733858 122.485994,89.6290553 C121.816534,89.8517335 121.147074,90.0744117 120.477614,90.0744117 C118.469235,90.0744117 116.795585,89.2950382 115.568242,87.9589695 L73.0579854,45.4274493 L12.1371356,105.995897 C10.9097925,107.331966 9.12456611,108 7.45091638,108 C5.77726667,108 3.9920403,107.331966 2.76469718,106.107236 C0.198434275,103.435099 0.198434275,99.2042144 2.76469718,96.6434161 L67.8138829,31.7324109 C67.9117356,31.6347667 67.9667429,31.5371222 68.0163946,31.4489417 C68.0799932,31.3358213 68.1348889,31.2382883 68.2601896,31.1757158 C70.938029,28.6149173 75.1779417,28.6149173 77.7442045,31.1757158 L120.366038,73.9302482 L180.971125,13.360687 L141.900331,13.360687 C138.218301,13.360687 135.205732,10.3545324 135.205732,6.6803435 C135.205732,3.00615457 138.218301,0 141.900331,0 Z" id="Path"></path>
                </g>
                <g id="Heavy-L" transform="translate(2062.600000, 842.000000)" fill="#000000" stroke="#000000" stroke-width="5">
                    <path d="M138.680817,0 L192.822973,0 C195.942436,0 198.571886,2.20401232 199.228154,5.13034711 C199.375814,5.75650561 199.428316,6.40014845 199.385658,7.03789033 L199.385658,60.6488593 C199.385658,64.2550077 196.43245,67.2054927 192.822973,67.2054927 C189.213495,67.2054927 186.260287,64.2550077 186.260287,60.6488593 L186.260287,22.4357069 L122.711615,86.1115452 C122.656926,86.1661839 122.602237,86.1935031 122.547548,86.2208224 C122.492859,86.2481418 122.43817,86.2754611 122.383481,86.3300997 C122.274103,86.3300997 122.274103,86.4393769 122.274103,86.4393769 C122.164725,86.5486542 121.945969,86.6579314 121.727212,86.7672085 C121.2897,87.2043175 120.74281,87.6414264 120.195919,87.8599809 C120.086541,87.9146194 120.004507,87.9146194 119.922474,87.9146194 C119.84044,87.9146194 119.758407,87.9146194 119.649029,87.969258 C118.99276,88.1878125 118.336491,88.406367 117.680223,88.406367 C115.711417,88.406367 114.070746,87.6414264 112.867587,86.3300997 L71.1949709,44.5862002 L11.4745319,104.03301 C10.2713729,105.344337 8.52132343,106 6.88065202,106 C5.23998063,106 3.48993113,105.344337 2.28677211,104.142287 C-0.228924036,101.519634 -0.228924036,97.3670993 2.28677211,94.8537232 L66.0542005,31.1447737 C66.1501251,31.0489376 66.2040485,30.9531014 66.2527218,30.8665539 C66.3150672,30.7555284 66.3688813,30.6598015 66.4917129,30.5983877 C69.1167871,28.0850114 73.2731547,28.0850114 75.7888507,30.5983877 L117.570845,72.5611695 L176.981744,13.1132669 L138.680817,13.1132669 C135.07134,13.1132669 132.118131,10.1627818 132.118131,6.55663344 C132.118131,2.95048504 135.07134,0 138.680817,0 Z" id="Path"></path>
                </g>
                <g id="Bold-L" transform="translate(1766.400000, 843.000000)" fill="#000000" stroke="#000000" stroke-width="3">
                    <path d="M136.101303,0 L189.155175,0 C192.211935,0 194.788531,2.16242719 195.431608,5.03354811 C195.5763,5.64789229 195.627747,6.27939093 195.585946,6.90509995 L195.585946,59.5045412 C195.585946,63.0426491 192.692099,65.9374645 189.155175,65.9374645 C185.618249,65.9374645 182.724402,63.0426491 182.724402,59.5045412 L182.724402,22.0123917 L120.45309,84.4867991 C120.399501,84.5404068 120.345911,84.5672106 120.292321,84.5940144 C120.238731,84.6208184 120.185142,84.6476222 120.131552,84.7012299 C120.024372,84.7012299 120.024372,84.8084452 120.024372,84.8084452 C119.917193,84.9156607 119.702834,85.0228761 119.488474,85.1300914 C119.059756,85.5589531 118.523859,85.9878145 117.987961,86.2022454 C117.880781,86.255853 117.800397,86.255853 117.720012,86.255853 C117.639628,86.255853 117.559243,86.255853 117.452063,86.3094607 C116.808986,86.5238915 116.165909,86.7383224 115.522832,86.7383224 C113.5936,86.7383224 111.985907,85.9878145 110.806932,84.7012299 L69.9719564,43.7449512 L11.4519283,102.070123 C10.2729534,103.356708 8.55808074,104 6.95038766,104 C5.34269459,104 3.62782197,103.356708 2.44884704,102.177338 C-0.0162823469,99.604169 -0.0162823469,95.5299843 2.44884704,93.0640303 L64.9345181,30.5571364 C65.0285145,30.4631086 65.081354,30.3690807 65.129049,30.2841661 C65.1901412,30.1752354 65.2428736,30.0813147 65.3632363,30.0210596 C67.9355451,27.5551055 72.0083677,27.5551055 74.473497,30.0210596 L115.415652,71.1920908 L173.632362,12.8658467 L136.101303,12.8658467 C132.564378,12.8658467 129.670531,9.97103123 129.670531,6.43292337 C129.670531,2.89481551 132.564378,0 136.101303,0 Z" id="Path"></path>
                </g>
                <g id="Semibold-L" transform="translate(1472.110000, 844.000000)" fill="#000000" stroke="#000000" stroke-width="2">
                    <path d="M132.916911,0 L184.610427,0 C187.588809,0 190.099338,2.10004948 190.725926,4.88834961 C190.866908,5.48497232 190.917036,6.09825465 190.876307,6.70591437 L190.876307,57.7880641 C190.876307,61.2241111 188.056661,64.0354223 184.610427,64.0354223 C181.164191,64.0354223 178.344546,61.2241111 178.344546,57.7880641 L178.344546,21.3774188 L117.669934,82.0496799 C117.617719,82.1017413 117.565503,82.1277719 117.513287,82.1538025 C117.461072,82.1798332 117.408856,82.2058638 117.35664,82.2579252 C117.252209,82.2579252 117.252209,82.3620478 117.252209,82.3620478 C117.147777,82.4661705 116.938915,82.5702931 116.730052,82.6744157 C116.312327,83.0909063 115.79017,83.5073968 115.268013,83.7156421 C115.163582,83.7677034 115.085258,83.7677034 115.006935,83.7677034 C114.928611,83.7677034 114.850288,83.7677034 114.745857,83.8197647 C114.119268,84.02801 113.49268,84.2362554 112.866092,84.2362554 C110.986328,84.2362554 109.419858,83.5073968 108.271113,82.2579252 L68.4831883,42.4830776 L11.4636737,99.1257926 C10.3149289,100.375264 8.64402739,101 7.07755721,101 C5.51108703,101 3.84018551,100.375264 2.69144071,99.2299152 C0.289519764,96.7309718 0.289519764,92.7743116 2.69144071,90.379491 L63.574915,29.6756806 C63.6665013,29.5843651 63.717986,29.4930495 63.764458,29.4105844 C63.8239837,29.3047959 63.875364,29.2135845 63.9926405,29.1550675 C66.4989927,26.7602467 70.4673839,26.7602467 72.8693047,29.1550675 L112.761661,69.1384728 L169.485635,12.4947165 L132.916911,12.4947165 C129.470676,12.4947165 126.65103,9.68340533 126.65103,6.24735827 C126.65103,2.81131122 129.470676,0 132.916911,0 Z" id="Path"></path>
                </g>
                <g id="Medium-L" transform="translate(1176.230000, 845.000000)" fill="#000000" stroke="#000000">
                    <path d="M131.407154,0 L182.556528,0 C185.503558,0 187.987661,2.07925691 188.607653,4.83995011 C188.747151,5.43066567 188.796751,6.03787589 188.756451,6.63951918 L188.756451,57.215905 C188.756451,60.6179318 185.966485,63.4014082 182.556528,63.4014082 C179.146568,63.4014082 176.356603,60.6179318 176.356603,57.215905 L176.356603,21.1657612 L116.320672,81.2373068 C116.269006,81.2888527 116.21734,81.3146256 116.165674,81.3403985 C116.114008,81.3661715 116.062342,81.3919444 116.010676,81.4434903 C115.907343,81.4434903 115.907343,81.546582 115.907343,81.546582 C115.804011,81.6496738 115.597347,81.7527655 115.390683,81.8558571 C114.977355,82.2682241 114.460695,82.6805909 113.944034,82.8867744 C113.840702,82.9383202 113.763203,82.9383202 113.685704,82.9383202 C113.608205,82.9383202 113.530706,82.9383202 113.427374,82.9898661 C112.807381,83.1960495 112.187389,83.402233 111.567397,83.402233 C109.707419,83.402233 108.157438,82.6805909 107.020786,81.4434903 L67.651681,42.062453 L11.2323719,98.1443491 C10.0957191,99.3814497 8.44240605,100 6.89242502,100 C5.34244401,100 3.68913092,99.3814497 2.55247817,98.2474408 C0.175840609,95.7732394 0.175840609,91.8557541 2.55247817,89.4846445 L62.7950738,29.381862 C62.8856961,29.2914506 62.9366387,29.2010391 62.9826216,29.1193905 C63.0415208,29.0146494 63.0923602,28.9243411 63.2084021,28.8664035 C65.6883717,26.4952938 69.6149904,26.4952938 71.9916278,28.8664035 L111.464065,68.4539335 L167.590944,12.3710065 L131.407154,12.3710065 C127.997195,12.3710065 125.20723,9.58753003 125.20723,6.18550324 C125.20723,2.78347645 127.997195,0 131.407154,0 Z" id="Path"></path>
                </g>
                <g id="Regular-L" transform="translate(882.910000, 846.000000)" fill="#000000">
                    <path d="M127.94764,0 L178.008729,0 C180.893057,0 183.324307,2.03767177 183.931107,4.7431511 C184.067637,5.32205235 184.116182,5.91711838 184.076739,6.5067288 L184.076739,56.0715869 C184.076739,59.4055732 181.346134,62.13338 178.008729,62.13338 C174.671322,62.13338 171.940718,59.4055732 171.940718,56.0715869 L171.940718,20.742446 L113.182147,79.6125607 C113.13158,79.6630757 113.081013,79.6883331 113.030447,79.7135905 C112.97988,79.7388481 112.929313,79.7641055 112.878746,79.8146205 C112.777613,79.8146205 112.777613,79.9156503 112.777613,79.9156503 C112.676479,80.0166803 112.474212,80.1177101 112.271945,80.21874 C111.867411,80.6228596 111.361744,81.0269791 110.856076,81.2290389 C110.754942,81.2795537 110.679092,81.2795537 110.603242,81.2795537 C110.527392,81.2795537 110.451542,81.2795537 110.350408,81.3300687 C109.743607,81.5321286 109.136806,81.7341884 108.530005,81.7341884 C106.709602,81.7341884 105.192599,81.0269791 104.080131,79.8146205 L65.5486665,41.221204 L10.3297682,96.1814621 C9.21729959,97.3938207 7.59916337,98 6.08216066,98 C4.56515797,98 2.94702175,97.3938207 1.8345531,96.2824919 C-0.491517702,93.8577746 -0.491517702,90.018639 1.8345531,87.6949517 L60.7953914,28.7942247 C60.8840855,28.7056216 60.9339443,28.6170183 60.9789488,28.5370026 C61.0365948,28.4343564 61.0863525,28.3458542 61.1999255,28.2890754 C63.6271298,25.9653879 67.4702033,25.9653879 69.7962741,28.2890754 L108.428872,67.0848548 L163.361562,12.1235864 L127.94764,12.1235864 C124.610234,12.1235864 121.879629,9.39577943 121.879629,6.06179318 C121.879629,2.72780693 124.610234,0 127.94764,0 Z" id="Path"></path>
                </g>
                <g id="Light-L" transform="translate(588.370000, 847.000000)" fill="#000000" stroke="#FFFFFF" stroke-width="2">
                    <path d="M124.318369,0 L172.747031,0 C175.537305,0 177.889275,1.97529406 178.476289,4.5979526 C178.608366,5.15913238 178.655328,5.7359821 178.617171,6.30754322 L178.617171,54.3551097 C178.617171,57.5870352 175.975608,60.2313378 172.747031,60.2313378 C169.518453,60.2313378 166.87689,57.5870352 166.87689,54.3551097 L166.87689,20.1074732 L110.034359,77.1754415 C109.985442,77.2244101 109.936524,77.2488943 109.887606,77.2733786 C109.838688,77.2978629 109.78977,77.3223472 109.740852,77.3713158 C109.643017,77.3713158 109.643017,77.4692529 109.643017,77.4692529 C109.545181,77.5671901 109.34951,77.6651272 109.153838,77.7630643 C108.762496,78.1548129 108.273317,78.5465614 107.784139,78.7424357 C107.686303,78.7914041 107.612926,78.7914041 107.53955,78.7914041 C107.466173,78.7914041 107.392796,78.7914041 107.29496,78.8403728 C106.707946,79.0362471 106.120932,79.2321214 105.533918,79.2321214 C103.772876,79.2321214 102.305341,78.5465614 101.229148,77.3713158 L63.9541448,39.9593304 L10.5358627,93.2371316 C9.45967025,94.4123772 7.89429935,95 6.42676412,95 C4.9592289,95 3.393858,94.4123772 2.3176655,93.3350687 C0.0674448319,90.9845774 0.0674448319,87.2629664 2.3176655,85.0104123 L59.3558678,27.9127689 C59.4416697,27.8268781 59.4899026,27.7409871 59.5334396,27.6634209 C59.5892058,27.5639169 59.637341,27.478124 59.7472105,27.4230833 C62.0952668,25.1705291 65.8130228,25.1705291 68.0632434,27.4230833 L105.436082,65.0312368 L158.577489,11.7524562 L124.318369,11.7524562 C121.089791,11.7524562 118.448228,9.10815353 118.448228,5.87622808 C118.448228,2.64430263 121.089791,0 124.318369,0 Z" id="Path"></path>
                </g>
                <g id="Thin-L" transform="translate(295.837000, 849.000000)" fill="#000000" stroke="#FFFFFF" stroke-width="2.3">
                    <path d="M166.044718,0.7 L118.918492,0.7 C117.789074,0.7 116.763228,1.16287617 116.019148,1.90586132 C115.276052,2.64786543 114.812632,3.67071752 114.812632,4.79711869 C114.812632,5.92351986 115.276052,6.94637195 116.019148,7.68837606 C116.763228,8.4313612 117.789074,8.89423738 118.918492,8.89423738 L156.134847,8.89423738 L100.541924,64.4912495 L63.0383671,26.8460928 C62.253112,26.0620001 61.2018926,25.6792068 60.1127785,25.740303 C58.9825907,25.8037033 57.8277064,26.3361773 56.8380349,27.3243933 L1.33381727,82.7472703 C0.549844804,83.5300897 0.163,84.5695047 0.163,85.6147643 C0.163,86.6703653 0.556392852,87.7340984 1.34161833,88.5610701 C2.09129141,89.3051655 3.1809928,89.7 4.19745655,89.7 C5.20935719,89.7 6.2970404,89.3042482 7.03487782,88.4845721 L60.1812747,35.6107231 L97.6125289,73.0854237 C98.365765,73.918202 99.4011445,74.394618 100.639229,74.394618 C101.011592,74.394618 101.380262,74.2627842 102.298062,74.0060287 C102.635534,73.8518691 102.99463,73.537014 103.955842,72.7956539 L161.938857,14.7285022 L161.938857,51.8540386 C161.938857,52.9804398 162.402277,54.0032919 163.145373,54.745296 C163.889454,55.4882811 164.915298,55.9511572 166.044718,55.9511572 C167.174135,55.9511572 168.199982,55.4882811 168.944061,54.745296 C169.687158,54.0032919 170.150577,52.9804398 170.150577,51.8540386 L170.150577,5.15751937 C170.183229,4.7459701 170.151852,4.32980053 170.052474,3.9081933 C169.844966,2.98341238 169.320652,2.17529801 168.60298,1.60078062 C167.900256,1.03823067 167.010208,0.7 166.044718,0.7 Z" id="Path"></path>
                </g>
                <g id="Ultralight-L" transform="translate(0.275000, 851.000000)" fill="#000000" stroke="#FFFFFF" stroke-width="2.6">
                    <path d="M163.87575,0.4 L117.466759,0.4 C116.411234,0.4 115.452666,0.83170882 114.757325,1.52417558 C114.063077,2.21555313 113.629731,3.16850914 113.629731,4.21816398 C113.629731,5.26781881 114.063077,6.22077482 114.757325,6.91215238 C115.452666,7.60461914 116.411234,8.03632796 117.466759,8.03632796 L154.614906,8.03632796 L99.3696023,63.1383155 L62.2909317,26.0189325 C61.5603511,25.2913809 60.5814978,24.9363755 59.5675892,24.9931013 C58.4997827,25.0528423 57.411039,25.5588159 56.4769142,26.4890788 L1.8174392,80.9228574 C1.08533068,81.6519391 0.725,82.6202398 0.725,83.593507 C0.725,84.5785549 1.09284529,85.5711151 1.82680409,86.3432213 C2.52682138,87.0349193 3.543891,87.4 4.49171168,87.4 C5.4345526,87.4 6.44953175,87.0338857 7.13634908,86.270215 L59.6239474,34.1910814 L96.6347055,71.1459549 C97.3386606,71.9242373 98.3077329,72.3677637 99.465696,72.3677637 C99.8184719,72.3677637 100.167197,72.2391176 101.028481,71.9980007 C101.348326,71.8493929 101.690471,71.5450511 102.59515,70.84841 L160.038721,13.4749409 L160.038721,50.4352881 C160.038721,51.484943 160.472069,52.437899 161.166316,53.1292764 C161.861658,53.8217432 162.820225,54.253452 163.87575,54.253452 C164.931275,54.253452 165.889843,53.8217432 166.585185,53.1292764 C167.279432,52.437899 167.712778,51.484943 167.712778,50.4352881 L167.712778,4.56386888 C167.744296,4.17828274 167.715236,3.78822887 167.621177,3.39017794 C167.427226,2.52812197 166.936856,1.77506736 166.26614,1.23957174 C165.609529,0.715338183 164.777919,0.4 163.87575,0.4 Z" id="Path"></path>
                </g>
                <g id="Black-M" transform="translate(2376.670000, 422.000000)" fill="#010101" stroke="#000000" stroke-width="6">
                    <path d="M112.900313,0 L156.975837,0 C159.5153,0 161.655856,1.78816095 162.190105,4.16235708 C162.310311,4.67037246 162.353051,5.19257328 162.318325,5.70998649 L162.318325,49.2056783 C162.318325,52.1314213 159.914205,54.5252111 156.975837,54.5252111 C154.037469,54.5252111 151.633349,52.1314213 151.633349,49.2056783 L151.633349,18.2025546 L99.9002596,69.864084 C99.8557388,69.9084133 99.8112181,69.930578 99.7666973,69.9527427 C99.7221766,69.9749075 99.6776559,69.9970722 99.6331351,70.0414016 C99.5440936,70.0414016 99.5440936,70.1300605 99.5440936,70.1300605 C99.4550521,70.2187193 99.2769694,70.3073782 99.0988864,70.3960371 C98.7427205,70.7506727 98.2975132,71.1053082 97.8523058,71.282626 C97.7632643,71.3269554 97.6964833,71.3269554 97.6297023,71.3269554 C97.5629211,71.3269554 97.49614,71.3269554 97.4070986,71.3712849 C96.8728498,71.5486027 96.338601,71.7259203 95.8043522,71.7259203 C94.2016059,71.7259203 92.865984,71.1053082 91.8865279,70.0414016 L57.9620867,36.1737095 L9.3454481,84.4041402 C8.36599202,85.4680467 6.94132861,86 5.60570667,86 C4.27008472,86 2.84542133,85.4680467 1.86596523,84.4927991 C-0.18198841,82.3649859 -0.18198841,78.9959485 1.86596523,76.9567942 L53.777138,25.2684014 C53.8552273,25.1906475 53.8991249,25.1128937 53.9387483,25.0426759 C53.9895019,24.9525985 54.0333103,24.8749332 54.1333038,24.825107 C56.2702989,22.7859527 59.6538745,22.7859527 61.7018281,24.825107 L95.7153107,58.8703828 L144.079962,10.6390656 L112.900313,10.6390656 C109.961945,10.6390656 107.557825,8.24527582 107.557825,5.3195328 C107.557825,2.39378976 109.961945,0 112.900313,0 Z" id="Path"></path>
                </g>
                <g id="Heavy-M" transform="translate(2082.570000, 423.000000)" fill="#010101" stroke="#000000" stroke-width="5">
                    <path d="M110.220799,0 L153.208039,0 C155.684798,0 157.772502,1.74657582 158.293559,4.06555808 C158.410797,4.56175915 158.452482,5.07181576 158.418613,5.57719611 L158.418613,48.0613602 C158.418613,50.9190627 156.073855,53.2571829 153.208039,53.2571829 C150.342223,53.2571829 147.997464,50.9190627 147.997464,48.0613602 L147.997464,17.7792394 L97.5417346,68.2393378 C97.4983132,68.2826363 97.4548917,68.3042855 97.4114702,68.3259347 C97.3680488,68.3475841 97.3246273,68.3692333 97.2812059,68.4125318 C97.1943629,68.4125318 97.1943629,68.4991288 97.1943629,68.4991288 C97.10752,68.5857259 96.9338343,68.6723229 96.7601485,68.75892 C96.4127767,69.1053082 95.9785623,69.4516964 95.5443476,69.6248905 C95.4575047,69.668189 95.3923726,69.668189 95.3272405,69.668189 C95.2621082,69.668189 95.1969761,69.668189 95.1101332,69.7114876 C94.5890758,69.8846817 94.0680182,70.0578756 93.5469608,70.0578756 C91.9837885,70.0578756 90.6811449,69.4516964 89.7258729,68.4125318 L56.6390722,35.3324604 L9.22284444,82.4412532 C8.26757246,83.4804177 6.87808593,84 5.5754423,84 C4.27279868,84 2.88331216,83.4804177 1.92804016,82.5278502 C-0.0693467205,80.4495211 -0.0693467205,77.1588334 1.92804016,75.1671013 L52.5574556,24.6807642 C52.6336168,24.6048185 52.6764304,24.528873 52.7150755,24.4602881 C52.7645759,24.3723055 52.8073026,24.2964464 52.9048272,24.2477789 C54.9890569,22.2560468 58.2890875,22.2560468 60.2864743,24.2477789 L93.4601179,57.5013041 L140.63058,10.3916454 L110.220799,10.3916454 C107.354983,10.3916454 105.010225,8.05352522 105.010225,5.19582273 C105.010225,2.33812023 107.354983,0 110.220799,0 Z" id="Path"></path>
                </g>
                <g id="Bold-M" transform="translate(1787.790000, 424.000000)" fill="#010101" stroke="#000000" stroke-width="3.4">
                    <path d="M106.526407,0 L148.153291,0 C150.551672,0 152.573309,1.68419811 153.077877,3.92035958 C153.191405,4.39883918 153.23177,4.89067948 153.198973,5.37801053 L153.198973,46.344883 C153.198973,49.1005247 150.928416,51.3551407 148.153291,51.3551407 C145.378165,51.3551407 143.107608,49.1005247 143.107608,46.344883 L143.107608,17.1442665 L94.2485785,65.8022186 C94.2065311,65.8439707 94.1644837,65.8648467 94.1224364,65.8857228 C94.080389,65.9065989 94.0383416,65.927475 93.9962943,65.9692271 C93.9121995,65.9692271 93.9121995,66.0527314 93.9121995,66.0527314 C93.8281048,66.1362357 93.6599155,66.21974 93.491726,66.3032443 C93.1553471,66.6372615 92.7348736,66.9712787 92.3143999,67.1382873 C92.2303052,67.1800394 92.1672342,67.1800394 92.1041633,67.1800394 C92.0410921,67.1800394 91.9780212,67.1800394 91.8939264,67.2217916 C91.3893582,67.3888002 90.8847898,67.5558086 90.3802215,67.5558086 C88.8665167,67.5558086 87.605096,66.9712787 86.6800541,65.9692271 L54.6403041,34.0705868 L8.72458987,79.4969227 C7.79954802,80.4989742 6.45403258,81 5.19261185,81 C3.93119113,81 2.5856757,80.4989742 1.66063383,79.580427 C-0.273544609,77.5763239 -0.273544609,74.4031608 1.66063383,72.482562 L50.6878526,23.7993083 C50.7616036,23.726075 50.8030624,23.6528418 50.8404845,23.5867064 C50.8884184,23.501866 50.9297931,23.4287162 51.0242314,23.3817868 C53.0425045,21.461188 56.2381037,21.461188 58.1722821,23.3817868 L90.2961268,55.4476861 L135.973853,10.0205152 L106.526407,10.0205152 C103.751281,10.0205152 101.480724,7.76589932 101.480724,5.01025763 C101.480724,2.25461593 103.751281,0 106.526407,0 Z" id="Path"></path>
                </g>
                <g id="Semibold-M" transform="translate(1491.080000, 424.000000)" fill="#010101" stroke="#000000" stroke-width="2.4">
                    <path d="M105.84665,0 L146.929391,0 C149.296421,0 151.291632,1.66340554 151.789604,3.87196008 C151.901648,4.34453252 151.941486,4.83030072 151.909118,5.31161534 L151.909118,45.772724 C151.909118,48.4943454 149.668241,50.7211266 146.929391,50.7211266 C144.190542,50.7211266 141.949665,48.4943454 141.949665,45.772724 L141.949665,16.9326089 L93.729316,64.9898455 C93.6878183,65.0310822 93.6463206,65.0517005 93.6048228,65.0723188 C93.5633251,65.0929372 93.5218274,65.1135555 93.4803296,65.1547922 C93.3973342,65.1547922 93.3973342,65.2372655 93.3973342,65.2372655 C93.3143387,65.3197389 93.148348,65.4022123 92.9823571,65.4846857 C92.6503752,65.8145792 92.2353981,66.1444728 91.8204208,66.3094195 C91.7374254,66.3506562 91.6751789,66.3506562 91.6129324,66.3506562 C91.5506857,66.3506562 91.4884392,66.3506562 91.4054437,66.3918929 C90.9074711,66.5568397 90.4094984,66.7217863 89.9115258,66.7217863 C88.417608,66.7217863 87.1726764,66.1444728 86.2597266,65.1547922 L54.6387969,33.6499623 L9.32328805,78.5154792 C8.41033824,79.5051597 7.08241123,80 5.83747967,80 C4.5925481,80 3.26462112,79.5051597 2.35167129,78.5979526 C0.442776235,76.6185915 0.442776235,73.4846032 2.35167129,71.5877155 L50.7380114,23.5054897 C50.8107983,23.4331605 50.8517152,23.3608314 50.8886481,23.2955125 C50.9359554,23.2117195 50.9767892,23.1394728 51.0699931,23.0931228 C53.0618835,21.1962351 56.2157102,21.1962351 58.1246052,23.0931228 L89.8285304,54.7631468 L134.909162,9.89680518 L105.84665,9.89680518 C103.1078,9.89680518 100.866924,7.67002402 100.866924,4.9484026 C100.866924,2.22678117 103.1078,0 105.84665,0 Z" id="Path"></path>
                </g>
                <g id="Medium-M" transform="translate(1196.910000, 425.000000)" fill="#010101" stroke="#000000" stroke-width="1.4">
                    <path d="M103.626893,0 L144.165492,0 C146.501171,0 148.469954,1.64261297 148.961331,3.82356058 C149.071891,4.29022587 149.111201,4.76992196 149.079262,5.24522015 L149.079262,45.200565 C149.079262,47.8881661 146.868065,50.0871125 144.165492,50.0871125 C141.462919,50.0871125 139.251723,47.8881661 139.251723,45.200565 L139.251723,16.7209513 L91.6700535,64.1774725 C91.6291055,64.2181936 91.5881574,64.2385542 91.5472093,64.2589148 C91.5062612,64.2792755 91.4653131,64.2996361 91.424365,64.3403573 C91.3424688,64.3403573 91.3424688,64.4217997 91.3424688,64.4217997 C91.2605727,64.5032422 91.0967805,64.5846847 90.9329881,64.6661271 C90.6054034,64.991897 90.1959227,65.3176669 89.7864418,65.4805518 C89.7045456,65.521273 89.6431235,65.521273 89.5817015,65.521273 C89.5202793,65.521273 89.4588572,65.521273 89.376961,65.5619943 C88.8855841,65.7248792 88.394207,65.887764 87.9028301,65.887764 C86.4286992,65.887764 85.2002569,65.3176669 84.2993991,64.3403573 L53.0972896,33.2293378 L8.38198622,77.5340357 C7.48112846,78.5113452 6.17078989,79 4.94234749,79 C3.71390508,79 2.40356653,78.5113452 1.50270876,77.6154782 C-0.38090292,75.6608591 -0.38090292,72.5660457 1.50270876,70.6928691 L49.2481702,23.2116711 C49.319993,23.140246 49.3603679,23.068821 49.3968117,23.0043186 C49.4434925,22.921573 49.4837854,22.8502294 49.5757547,22.8044587 C51.5412625,20.9312821 54.6533167,20.9312821 56.5369283,22.8044587 L87.820934,54.0786074 L132.304471,9.77309512 L103.626893,9.77309512 C100.92432,9.77309512 98.7131233,7.57414872 98.7131233,4.88654757 C98.7131233,2.1989464 100.92432,0 103.626893,0 Z" id="Path"></path>
                </g>
                <g id="Regular-M" transform="translate(901.180000, 426.000000)" fill="#010101">
                    <path d="M101.577379,0 L141.027694,0 C143.300669,0 145.2166,1.60102783 145.694785,3.72676157 C145.802377,4.18161255 145.840632,4.64916445 145.80955,5.11242976 L145.80955,44.0562469 C145.80955,46.6758074 143.657715,48.8190844 141.027694,48.8190844 C138.397673,48.8190844 136.245837,46.6758074 136.245837,44.0562469 L136.245837,16.2976361 L89.9415286,62.5527263 C89.9016798,62.5924166 89.861831,62.6122617 89.8219822,62.6321068 C89.7821334,62.6519521 89.7422846,62.6717972 89.7024357,62.7114874 C89.6227381,62.7114874 89.6227381,62.7908681 89.6227381,62.7908681 C89.5430405,62.8702487 89.3836454,62.9496293 89.2242502,63.02901 C88.9054597,63.3465325 88.5069717,63.664055 88.1084836,63.8228163 C88.028786,63.8625065 87.9690128,63.8625065 87.9092397,63.8625065 C87.8494664,63.8625065 87.7896933,63.8625065 87.7099956,63.9021969 C87.23181,64.0609582 86.7536243,64.2197193 86.2754387,64.2197193 C84.8408818,64.2197193 83.6454178,63.664055 82.7687441,62.7114874 L52.4042751,32.3880887 L8.88938256,75.5711488 C8.0127089,76.5237162 6.73754721,77 5.54208313,77 C4.34661904,77 3.07145736,76.5237162 2.19478369,75.6505294 C0.361738768,73.7453944 0.361738768,70.7289306 2.19478369,68.9031762 L48.6584878,22.6240338 C48.7283825,22.5544169 48.7676735,22.4848002 48.8031389,22.4219307 C48.8485665,22.3412801 48.8877777,22.2717425 48.9772781,22.2271307 C50.8900206,20.4013763 53.9185297,20.4013763 55.7515745,22.2271307 L86.1957411,52.7095288 L129.48509,9.52567499 L101.577379,9.52567499 C98.947358,9.52567499 96.7955227,7.38239811 96.7955227,4.7628375 C96.7955227,2.14327688 98.947358,0 101.577379,0 Z" id="Path"></path>
                </g>
                <g id="Light-M" transform="translate(607.300000, 427.000000)" fill="#010101" stroke="#FFFFFF" stroke-width="0.5">
                    <path d="M136.408191,0.5 L98.1228987,0.5 C96.9452448,0.5 95.8748005,0.98005701 95.0986714,1.75302025 C94.3231666,2.52536169 93.8412316,3.59049832 93.8412316,4.76248864 C93.8412316,5.93447894 94.3231666,6.99961558 95.0986714,7.77195702 C95.8748005,8.54492026 96.9452448,9.02497727 98.1228987,9.02497727 L126.075083,9.02497727 L83.1950333,51.7961584 L53.3965026,21.9632559 C52.5625547,21.1327112 51.4499157,20.7265023 50.2961639,20.7910555 C49.1707635,20.8540223 48.0097271,21.3633752 47.0200018,22.3490633 L1.92843645,67.256928 C1.10877353,68.0732474 0.7,69.1560318 0.7,70.24714 C0.7,71.3421681 1.11144084,72.4459663 1.93379135,73.3005709 C2.71289904,74.0763859 3.85457784,74.5 4.92365907,74.5 C5.98868261,74.5 7.12643646,74.0785535 7.90806715,73.2293437 L50.4027412,31.0625095 L80.1232694,60.7398055 C80.9185239,61.6033464 81.9893678,62.0984062 83.272846,62.0984062 C83.63764,62.0984062 84.0015687,61.9904295 84.9356876,61.7319009 C85.2698744,61.5944681 85.6106551,61.323258 86.5936757,60.5692029 L132.126523,15.0894016 L132.126523,42.8916121 C132.126523,44.0636024 132.608458,45.128739 133.383963,45.9010805 C134.160092,46.6740438 135.230537,47.1541008 136.408191,47.1541008 C137.585844,47.1541008 138.656289,46.6740438 139.432418,45.9010805 C140.207923,45.128739 140.689858,44.0636024 140.689858,42.8916121 L140.689858,5.08942433 C140.719075,4.67174961 140.685168,4.25002618 140.588137,3.83986439 C140.371049,2.87501589 139.826135,2.03417263 139.078111,1.43692166 C138.344716,0.851352231 137.415651,0.5 136.408191,0.5 Z" id="Path"></path>
                </g>
                <g id="Thin-M" transform="translate(313.346000, 429.000000)" fill="#010101" stroke="#FFFFFF" stroke-width="1.5">
                    <path d="M131.197855,0.5 L94.1736266,0.5 C93.2253176,0.5 92.3636542,0.886146766 91.7387827,1.50693524 C91.1157226,2.12592421 90.727292,2.97923351 90.727292,3.91885779 C90.727292,4.85848205 91.1157226,5.71179135 91.7387827,6.33078032 C92.3636542,6.9515688 93.2253176,7.33771556 94.1736266,7.33771556 L122.885138,7.33771556 L79.7365575,50.2706512 L50.429397,21.0020131 C49.766435,20.3433879 48.879741,20.0219672 47.9609955,20.0732449 C47.0245204,20.1255122 46.0648491,20.5597477 45.2437561,21.3754755 L1.63744394,64.6970832 C0.979768491,65.3504614 0.654,66.2176897 0.654,67.0904307 C0.654,67.9694982 0.983731433,68.8552923 1.64167938,69.5435079 C2.27183028,70.1672067 3.18841285,70.5 4.04423725,70.5 C4.89685029,70.5 5.81184762,70.1668151 6.43433175,69.4817277 L48.0268474,28.3123391 L77.2738336,57.444791 C77.9062925,58.138265 78.7742076,58.5364609 79.8127135,58.5364609 C80.1201586,58.5364609 80.425191,58.4327929 81.1916246,58.220189 C81.4704303,58.0968044 81.7645703,57.8459935 82.5656256,57.2319748 L127.751521,12.2099785 L127.751521,40.7011672 C127.751521,41.6407914 128.139951,42.4941007 128.763012,43.1130897 C129.387883,43.7338782 130.249546,44.120025 131.197855,44.120025 C132.146164,44.120025 133.007828,43.7338782 133.632699,43.1130897 C134.255759,42.4941007 134.64419,41.6407914 134.64419,40.7011672 L134.64419,4.20886865 C134.670485,3.86797505 134.64392,3.52339914 134.564494,3.1884812 C134.387943,2.40594083 133.948518,1.7317579 133.346807,1.2525129 C132.756516,0.782364685 132.008798,0.5 131.197855,0.5 Z" id="Path"></path>
                </g>
                <g id="Ultralight-M" transform="translate(18.539000, 431.000000)" fill="#000000" stroke="#FFFFFF" stroke-width="2">
                    <path d="M128.405836,0 L92.0219743,0 C91.1836966,0 90.4221967,0.341113976 89.8698926,0.888937602 C89.3199617,1.43440715 88.9763932,2.18616593 88.9763932,3.0143879 C88.9763932,3.84260985 89.3199617,4.59436863 89.8698926,5.13983818 C90.4221967,5.68766181 91.1836966,6.02877578 92.0219743,6.02877578 L121.062381,6.02877578 L77.8341621,48.9726181 L48.7930586,20.0157648 C48.2120804,19.4395064 47.4337336,19.1587024 46.6276767,19.2036192 C45.7820136,19.250743 44.9190911,19.6487658 44.1790393,20.382814 L1.32693838,62.8874993 C0.746965109,63.4627676 0.461,64.2266596 0.461,64.9947254 C0.461,65.7718027 0.752711099,66.5546556 1.33415892,67.163581 C1.89029288,67.7110216 2.69836695,68 3.45145406,68 C4.20078144,68 5.00735456,67.7102574 5.55339539,67.1060309 L46.6741034,26.468315 L75.6614022,55.296224 C76.2205055,55.9115222 76.9900291,56.2620591 77.9094462,56.2620591 C78.1887985,56.2620591 78.4650757,56.1614319 79.1488354,55.9709576 C79.40189,55.8543981 79.672315,55.6158219 80.3892416,55.0661132 L125.360255,10.3294069 L125.360255,39.103088 C125.360255,39.9313099 125.703823,40.6830687 126.253754,41.2285383 C126.806058,41.776362 127.567558,42.1174759 128.405836,42.1174759 C129.244113,42.1174759 130.005613,41.776362 130.557917,41.2285383 C131.107848,40.6830687 131.451417,39.9313099 131.451417,39.103088 L131.451417,3.28549953 C131.476218,2.98179145 131.453171,2.67458544 131.378892,2.3615133 C131.225181,1.68104012 130.836371,1.08675886 130.304851,0.664092148 C129.783215,0.249285076 129.122498,0 128.405836,0 Z" id="Path"></path>
                </g>
                <g id="Black-S" transform="translate(2395.570000, 0.000000)" fill="#000000" stroke="#000000" stroke-width="5">
                    <path d="M87.2898094,0 L121.298701,0 C123.258163,0 124.909827,1.43468727 125.322056,3.33956557 C125.414808,3.74715931 125.447786,4.16613437 125.420991,4.58126824 L125.420991,39.4789745 C125.420991,41.8263728 123.565961,43.7469718 121.298701,43.7469718 C119.031442,43.7469718 117.176412,41.8263728 117.176412,39.4789745 L117.176412,14.6043752 L77.2589039,56.0537418 C77.2245515,56.0893083 77.190199,56.1070917 77.1558467,56.124875 C77.1214942,56.1426583 77.0871418,56.1604417 77.0527895,56.1960083 C76.9840845,56.1960083 76.9840845,56.2671415 76.9840845,56.2671415 C76.9153798,56.3382749 76.7779701,56.4094082 76.6405604,56.4805414 C76.3657411,56.7650746 76.0222169,57.0496078 75.6786928,57.1918743 C75.609988,57.227441 75.5584594,57.227441 75.5069308,57.227441 C75.4554021,57.227441 75.4038735,57.227441 75.3351686,57.2630077 C74.9229396,57.4052742 74.5107107,57.5475407 74.0984816,57.5475407 C72.8617946,57.5475407 71.8312222,57.0496078 71.0754691,56.1960083 L44.8992028,29.0230925 L7.38636428,67.7196008 C6.63061112,68.5732003 5.5313338,69 4.50076132,69 C3.47018883,69 2.37091151,68.5732003 1.61515836,67.7907341 C0.0349472146,66.0835353 0.0349472146,63.3804703 1.61515836,61.7444047 L41.6700757,20.2734849 C41.7303298,20.211101 41.7642012,20.1487169 41.7947748,20.0923794 C41.8339367,20.020108 41.8677395,19.9577953 41.9448949,19.9178183 C43.5938109,18.2817527 46.2045946,18.2817527 47.7848058,19.9178183 L74.0297768,47.2332142 L111.348181,8.53599447 L87.2898094,8.53599447 C85.02255,8.53599447 83.1675196,6.61539572 83.1675196,4.26799723 C83.1675196,1.92059875 85.02255,0 87.2898094,0 Z" id="Path"></path>
                </g>
                <g id="Heavy-S" transform="translate(2099.540000, 1.000000)" fill="#000000" stroke="#000000" stroke-width="4">
                    <path d="M85.9300524,0 L119.394802,0 C121.322913,0 122.94815,1.4138947 123.353784,3.29116606 C123.445051,3.69285265 123.477502,4.10575562 123.451136,4.51487305 L123.451136,38.9068154 C123.451136,41.2201935 121.625785,43.1129577 119.394802,43.1129577 C117.163819,43.1129577 115.338469,41.2201935 115.338469,38.9068154 L115.338469,14.3927176 L76.0596415,55.2413687 C76.0258387,55.2764198 75.9920358,55.2939455 75.9582332,55.311471 C75.9244303,55.3289966 75.8906275,55.3465223 75.8568248,55.3815734 C75.7892192,55.3815734 75.7892192,55.4516757 75.7892192,55.4516757 C75.7216137,55.5217782 75.5864025,55.5918805 75.4511914,55.6619829 C75.1807693,55.9423924 74.8427415,56.2228018 74.5047137,56.3630065 C74.4371082,56.3980578 74.386404,56.3980578 74.3356999,56.3980578 C74.2849957,56.3980578 74.2342915,56.3980578 74.1666859,56.433109 C73.7610526,56.5733137 73.3554193,56.7135183 72.9497859,56.7135183 C71.7328859,56.7135183 70.7188027,56.2228018 69.9751416,55.3815734 L44.2176956,28.6024679 L7.30506245,66.7381574 C6.56140134,67.5793858 5.47971246,68 4.46562914,68 C3.45154581,68 2.36985693,67.5793858 1.62619582,66.8082597 C0.0712680592,65.1258029 0.0712680592,62.4619128 1.62619582,60.8495583 L41.0402344,19.9796663 C41.0995245,19.9181865 41.1328539,19.8567066 41.1629384,19.8011855 C41.2014737,19.7299615 41.2347356,19.6685518 41.3106566,19.6291543 C42.9331899,18.0167998 45.5022011,18.0167998 47.0571289,19.6291543 L72.8821804,46.5486748 L109.60349,8.4122844 L85.9300524,8.4122844 C83.6990692,8.4122844 81.8737193,6.51952042 81.8737193,4.2061422 C81.8737193,1.89276399 83.6990692,0 85.9300524,0 Z" id="Path"></path>
                </g>
                <g id="Bold-S" transform="translate(1803.710000, 1.000000)" fill="#000000" stroke="#000000" stroke-width="3">
                    <path d="M84.3702955,0 L117.290903,0 C119.187662,0 120.786473,1.39310213 121.185511,3.24276656 C121.275294,3.638546 121.307217,4.04537686 121.28128,4.44847786 L121.28128,38.3346564 C121.28128,40.6140142 119.48561,42.4789436 117.290903,42.4789436 C115.096196,42.4789436 113.300526,40.6140142 113.300526,38.3346564 L113.300526,14.18106 L74.660379,54.4289956 C74.6271258,54.4635313 74.5938726,54.4807992 74.5606196,54.498067 C74.5273664,54.5153349 74.4941132,54.5326028 74.4608602,54.5671385 C74.3943538,54.5671385 74.3943538,54.6362099 74.3943538,54.6362099 C74.3278476,54.7052815 74.194835,54.7743529 74.0618224,54.8434243 C73.7957974,55.1197101 73.463266,55.3959959 73.1307346,55.5341388 C73.0642284,55.5686746 73.0143487,55.5686746 72.964469,55.5686746 C72.9145893,55.5686746 72.8647096,55.5686746 72.7982032,55.6032103 C72.3991656,55.7413532 72.000128,55.879496 71.6010902,55.879496 C70.4039771,55.879496 69.4063831,55.3959959 68.6748141,54.5671385 L43.3361883,28.1818434 L7.02376062,65.7567139 C6.29219156,66.5855713 5.22809112,67 4.23049695,67 C3.23290279,67 2.16880235,66.5855713 1.43723329,65.8257853 C-0.0924110962,64.1680705 -0.0924110962,61.5433552 1.43723329,59.9547118 L40.2103932,19.6858476 C40.2687192,19.625272 40.3015067,19.5646962 40.331102,19.5099916 C40.3690107,19.439815 40.4017318,19.3793084 40.4764183,19.3404902 C42.0725689,17.7518469 44.5998075,17.7518469 46.129452,19.3404902 L71.534584,45.8641355 L107.658799,8.28857434 L84.3702955,8.28857434 C82.1755884,8.28857434 80.3799189,6.42364512 80.3799189,4.14428717 C80.3799189,1.86492922 82.1755884,0 84.3702955,0 Z" id="Path"></path>
                </g>
                <g id="Semibold-S" transform="translate(1507.300000, 2.000000)" fill="#000000" stroke="#000000" stroke-width="2">
                    <path d="M83.3905385,0 L115.767004,0 C117.632411,0 119.204796,1.37230956 119.597238,3.19436706 C119.685537,3.58423934 119.716932,3.9849981 119.691424,4.38208267 L119.691424,37.7624973 C119.691424,40.0078349 117.925435,41.8449295 115.767004,41.8449295 C113.608573,41.8449295 111.842584,40.0078349 111.842584,37.7624973 L111.842584,13.9694024 L73.8411166,53.6166226 C73.808413,53.6506427 73.7757095,53.667653 73.7430061,53.6846631 C73.7103025,53.7016731 73.677599,53.7186834 73.6448956,53.7527036 C73.5794885,53.7527036 73.5794885,53.8207441 73.5794885,53.8207441 C73.5140815,53.8887847 73.3832675,53.9568252 73.2524535,54.0248657 C72.9908255,54.2970279 72.6637905,54.56919 72.3367555,54.705271 C72.2713486,54.7392914 72.2222933,54.7392914 72.1732381,54.7392914 C72.1241828,54.7392914 72.0751276,54.7392914 72.0097205,54.7733117 C71.6172785,54.9093927 71.2248366,55.0454737 70.8323945,55.0454737 C69.6550684,55.0454737 68.6739635,54.56919 67.9544866,53.7527036 L43.0346811,27.7612189 L7.32245879,64.7752704 C6.60298178,65.5917568 5.55646978,66 4.57536477,66 C3.59425977,66 2.54774776,65.5917568 1.82827076,64.8433109 C0.323909747,63.2103381 0.323909747,60.6247977 1.82827076,59.0598654 L39.960552,19.392029 C40.0179139,19.3323575 40.0501595,19.2726858 40.0792656,19.2187977 C40.1165477,19.1496685 40.148728,19.090065 40.2221799,19.0518262 C41.7919479,17.4868939 44.277414,17.4868939 45.7817751,19.0518262 L70.7669875,45.1795962 L106.294108,8.16486427 L83.3905385,8.16486427 C81.2321076,8.16486427 79.4661186,6.32776982 79.4661186,4.08243214 C79.4661186,1.83709446 81.2321076,0 83.3905385,0 Z" id="Path"></path>
                </g>
                <g id="Medium-S" transform="translate(1211.560000, 3.000000)" fill="#000000" stroke="#000000">
                    <path d="M114.301543,0 L82.0447895,0 C81.1871454,0 80.4093712,0.367050641 79.8447625,0.952651005 C79.2701781,1.54859779 78.9148802,2.37095658 78.9148802,3.27478846 C78.9148802,4.17862035 79.2701781,5.00097915 79.8447625,5.59692592 C80.4093712,6.1825263 81.1871454,6.54957693 82.0447895,6.54957693 L106.698037,6.54957693 L69.4668754,45.2246767 L44.0123223,18.6850368 C43.4119024,18.0622976 42.6101239,17.7548446 41.7774837,17.8033612 C40.936106,17.852387 40.074297,18.2594621 39.3367321,19.0244489 L1.34544681,58.428418 C0.738680555,59.0577433 0.44,59.8934809 0.44,60.7336601 C0.44,61.5823953 0.744445457,62.4388855 1.35682258,63.1016453 C1.91524285,63.6805735 2.74479383,64 3.5210356,64 C4.29379769,64 5.12050218,63.6806804 5.68457389,63.0344559 L41.8399163,25.6722521 L67.2398391,52.0859429 C67.8114949,52.7388714 68.5940648,53.1183419 69.5330793,53.1183419 C69.8075219,53.1183419 70.0799169,53.0237566 70.7675929,52.8248642 C71.0179885,52.7108574 71.2804192,52.4802482 72.0039567,51.9015616 L111.171633,11.158802 L111.171633,36.7308177 C111.171633,37.6346496 111.526931,38.4570084 112.101515,39.0529552 C112.666124,39.6385555 113.443898,40.0056062 114.301543,40.0056062 C115.159187,40.0056062 115.936961,39.6385555 116.50157,39.0529552 C117.076154,38.4570084 117.431452,37.6346496 117.431452,36.7308177 L117.431452,3.54599401 C117.454901,3.2184118 117.430112,2.8874124 117.357015,2.56562206 C117.195502,1.81817032 116.794007,1.17039372 116.241165,0.710697589 C115.708375,0.267674571 115.033881,0 114.301543,0 Z" id="Path"></path>
                </g>
                <g id="Regular-S" transform="translate(915.140000, 3.000000)" fill="#000000">
                    <path d="M81.4659031,0 L113.026155,0 C114.844536,0 116.37728,1.33072443 116.759828,3.09756806 C116.845902,3.47562603 116.876506,3.86424058 116.85164,4.24929228 L116.85164,36.6181792 C116.85164,38.7954763 115.130172,40.5769013 113.026155,40.5769013 C110.922138,40.5769013 109.20067,38.7954763 109.20067,36.6181792 L109.20067,13.5460871 L72.1572229,51.9918764 C72.1253438,52.0248657 72.0934647,52.0413605 72.0615857,52.0578551 C72.0297067,52.0743497 71.9978276,52.0908445 71.9659486,52.1238338 C71.9021905,52.1238338 71.9021905,52.1898124 71.9021905,52.1898124 C71.8384324,52.2557912 71.7109162,52.3217699 71.5834,52.3877486 C71.3283678,52.6516634 71.0095773,52.9155782 70.6907869,53.0475355 C70.6270289,53.080525 70.5792103,53.080525 70.5313917,53.080525 C70.4835732,53.080525 70.4357546,53.080525 70.3719964,53.1135144 C69.989448,53.2454717 69.6068995,53.377429 69.2243509,53.377429 C68.0767054,53.377429 67.1203342,52.9155782 66.4189953,52.1238338 L42.1274202,26.9199698 L7.31550605,62.8123834 C6.61416712,63.6041278 5.59403777,64 4.6376665,64 C3.68129524,64 2.66116588,63.6041278 1.95982695,62.8783621 C0.493391015,61.2948733 0.493391015,58.7876826 1.95982695,57.2701725 L39.1307902,18.8043918 C39.186706,18.7465285 39.2181387,18.688665 39.246511,18.6364099 C39.2828532,18.5693755 39.3142222,18.5115782 39.3858225,18.4744981 C40.9160165,16.956988 43.3388238,16.956988 44.8052597,18.4744981 L69.1605929,43.8105175 L103.792072,7.91744414 L81.4659031,7.91744414 C79.3618864,7.91744414 77.6404182,6.13601922 77.6404182,3.95872207 C77.6404182,1.78142493 79.3618864,0 81.4659031,0 Z" id="Path"></path>
                </g>
                <g id="Light-S" transform="translate(621.950000, 4.000000)" fill="#000000" stroke="#FFFFFF" stroke-width="0.3">
                    <path d="M77.8763892,0 L108.348357,0 C110.104034,0 111.583925,1.28913929 111.953283,3.00076906 C112.036388,3.36701271 112.065936,3.74348306 112.041928,4.1165019 L112.041928,35.4738611 C112.041928,37.5831176 110.379821,39.3088732 108.348357,39.3088732 C106.316892,39.3088732 104.654785,37.5831176 104.654785,35.4738611 L104.654785,13.1227719 L68.8886979,50.3671303 C68.8579181,50.3990886 68.8271383,50.4150679 68.7963587,50.4310471 C68.7655788,50.4470263 68.734799,50.4630056 68.7040194,50.4949639 C68.6424597,50.4949639 68.6424597,50.5588808 68.6424597,50.5588808 C68.5809003,50.6227978 68.4577812,50.6867146 68.3346621,50.7506314 C68.088424,51.0062989 67.7806264,51.2619664 67.4728287,51.3898001 C67.4112692,51.4217585 67.3650996,51.4217585 67.31893,51.4217585 C67.2727603,51.4217585 67.2265907,51.4217585 67.1650311,51.453717 C66.7956739,51.5815507 66.4263168,51.7093844 66.0569595,51.7093844 C64.9488879,51.7093844 64.0254951,51.2619664 63.3483403,50.4949639 L39.8944057,26.0787208 L6.28290239,60.8494964 C5.60574756,61.6164989 4.62079508,62 3.69740214,62 C2.77400919,62 1.78905672,61.6164989 1.11190189,60.9134132 C-0.303967296,59.3794085 -0.303967296,56.9505675 1.11190189,55.4804796 L37.0011078,18.2167545 C37.0550955,18.1606994 37.0854442,18.1046442 37.1128383,18.0540221 C37.1479273,17.9890826 37.1782146,17.9330914 37.2473458,17.8971701 C38.7247745,16.4270822 41.0640367,16.4270822 42.479906,17.8971701 L65.9954,42.4414388 L99.4326898,7.67002402 L77.8763892,7.67002402 C75.8449248,7.67002402 74.1828175,5.94426861 74.1828175,3.83501201 C74.1828175,1.7257554 75.8449248,0 77.8763892,0 Z" id="Path"></path>
                </g>
                <g id="Thin-S" transform="translate(327.533000, 6.000000)" fill="#000000" stroke="#FFFFFF">
                    <path d="M103.623611,0 L74.3995444,0 C73.6225334,0 72.9178833,0.332639644 72.4063575,0.863339973 C71.8857939,1.40341675 71.5639,2.1486794 71.5639,2.96777705 C71.5639,3.78687469 71.8857939,4.53213736 72.4063575,5.07221412 C72.9178833,5.60291446 73.6225334,5.93555409 74.3995444,5.93555409 L96.7349654,5.93555409 L63.0041692,40.9848632 L39.9427792,16.9333146 C39.398809,16.3689572 38.6724114,16.0903279 37.9180536,16.1342961 C37.1557798,16.1787257 36.3749956,16.5476375 35.7067744,17.2409068 L1.28731933,52.9507538 C0.737599481,53.5210799 0.467,54.2784671 0.467,55.0398795 C0.467,55.8090458 0.742822387,56.58524 1.29762559,57.185866 C1.8035448,57.7105197 2.55510382,58 3.25836559,58 C3.95847483,58 4.70745497,57.7106166 5.21849429,57.1249756 L37.9746165,23.2654785 L60.9865124,47.2028858 C61.5044227,47.7946022 62.2134177,48.1384974 63.0641488,48.1384974 C63.312789,48.1384974 63.5595743,48.0527795 64.182597,47.8725331 C64.4094511,47.7692145 64.6472089,47.5602249 65.3027215,47.0357902 L100.787967,10.1126643 L100.787967,33.2873036 C100.787967,34.1064012 101.109861,34.8516639 101.630424,35.3917406 C102.14195,35.9224409 102.8466,36.2550807 103.623611,36.2550807 C104.400622,36.2550807 105.105272,35.9224409 105.616798,35.3917406 C106.137362,34.8516639 106.459256,34.1064012 106.459256,33.2873036 L106.459256,3.21355707 C106.4805,2.91668569 106.458041,2.61671749 106.391817,2.32509499 C106.245489,1.64771685 105.881742,1.06066931 105.380876,0.64406969 C104.898177,0.24258008 104.287098,0 103.623611,0 Z" id="Path"></path>
                </g>
                <g id="Ultralight-S" transform="translate(32.530000, 7.000000)" fill="#000000" stroke="#FFFFFF" stroke-width="1.3">
                    <path d="M100.937836,0 L72.4064162,0 C71.7158388,0 71.0903185,0.296147254 70.6359515,0.766394007 C70.1696426,1.24900001 69.8818141,1.91509736 69.8818141,2.64689325 C69.8818141,3.37868914 70.1696426,4.04478649 70.6359515,4.52739249 C71.0903185,4.99763924 71.7158388,5.29378649 72.4064162,5.29378649 L94.7858959,5.29378649 L61.280801,40.0234778 L38.5903958,16.4166835 C38.1108142,15.9203455 37.4698194,15.6742536 36.8037575,15.7129806 C36.1136207,15.7531074 35.409945,16.09186 34.8061947,16.7167108 L1.20252439,51.4949758 C0.710421786,52.004277 0.47,52.6810851 0.47,53.3605634 C0.47,54.0460109 0.714283179,54.7380049 1.20694621,55.2753079 C1.66478916,55.746546 2.32966645,56 2.95137277,56 C3.57071824,56 4.23426036,55.7452186 4.68540245,55.2265157 L36.8453577,22.0645203 L59.4910373,45.5634059 C59.9512554,46.0901793 60.5824135,46.3957595 61.3396838,46.3957595 C61.5656828,46.3957595 61.7892882,46.3128998 62.3465953,46.1513367 C62.5528208,46.0540129 62.7717093,45.8556318 63.3604303,45.3851236 L98.4132337,9.00110988 L98.4132337,32.1754584 C98.4132337,32.9072543 98.7010622,33.5733517 99.1673712,34.0559576 C99.6217382,34.5262044 100.247259,34.8223516 100.937836,34.8223516 C101.628413,34.8223516 102.253934,34.5262044 102.708301,34.0559576 C103.17461,33.5733517 103.462438,32.9072543 103.462438,32.1754584 L103.462438,2.87736643 C103.482516,2.60931133 103.462619,2.33831618 103.402662,2.07493932 C103.271036,1.46718722 102.945842,0.942962168 102.497612,0.571053418 C102.06916,0.215555992 101.526941,0 100.937836,0 Z" id="Path"></path>
                </g>
            </g>
        </g>
    </g>
</svg>